#!OML:ASF F:\VICON\USERDATA\INSTALL\rory3\rory3.ASF
:FULLY-SPECIFIED
:DEGREES
1179
root 1.34684 17.8932 11.8991 -31.5602 -84.4021 -319.115
lowerback 1.89644 0.0727764 -3.05404
upperback 1.16351 0.0341193 2.35615
thorax 0.128136 -0.0131291 4.14017
lowerneck -10.4593 2.73223 -11.9062
upperneck 42.9385 3.74676 3.64852
head 17.1663 -0.606131 4.22061
rclavicle 7.15625e-015 2.3059e-014
rhumerus -27.2785 -7.73493 -75.5214
rradius 33.0375
rwrist 18.1105
rhand -21.1472 2.62801
rfingers 7.12502
rthumb 5.23222 -27.2874
lclavicle 7.15625e-015 2.3059e-014
lhumerus -34.2413 25.2834 76.1421
lradius 28.5967
lwrist -7.63744
lhand -15.6653 25.351
lfingers 7.12502
lthumb 10.523 55.0676
rfemur -15.3774 2.84155 20.303
rtibia 29.5409
rfoot -21.7072 -4.53426
rtoes 17.6972
lfemur -22.3256 -3.04318 -21.5032
ltibia 34.796
lfoot -12.7475 -0.147001
ltoes -18.7262
1180
root 1.3329 17.8919 11.919 -36.8475 -84.3379 -313.658
lowerback 1.85212 0.150078 -3.24192
upperback 1.04439 0.139127 2.15428
thorax 0.0208016 0.0451036 4.03525
lowerneck -10.5371 2.69876 -11.8713
upperneck 42.9047 3.69038 3.69028
head 17.1715 -0.614689 4.22669
rclavicle -1.64991e-014 -2.62396e-014
rhumerus -27.3044 -7.80683 -75.6303
rradius 33.3114
rwrist 18.1561
rhand -21.0593 2.68039
rfingers 7.12502
rthumb 5.31714 -27.2329
lclavicle -1.64991e-014 -2.62396e-014
lhumerus -34.1973 25.0696 76.1307
lradius 28.5698
lwrist -7.57345
lhand -15.7192 25.2593
lfingers 7.12502
lthumb 10.471 54.9785
rfemur -15.6215 2.60015 19.7171
rtibia 29.743
rfoot -21.5839 -4.02782
rtoes 17.3529
lfemur -22.5465 -3.86912 -22.052
ltibia 34.2562
lfoot -13.0023 -0.149069
ltoes -18.1087
1181
root 1.31367 17.8965 11.931 -37.9133 -84.5793 -312.596
lowerback 1.92488 0.218206 -3.00306
upperback 0.978205 0.232531 2.09527
thorax -0.0958989 0.096563 3.83675
lowerneck -10.5984 2.6609 -11.6917
upperneck 42.8332 3.59798 3.69694
head 17.158 -0.616488 4.18341
rclavicle -3.97569e-016 -4.77083e-015
rhumerus -27.3621 -7.61839 -75.8672
rradius 33.6255
rwrist 17.8802
rhand -21.0565 2.65191
rfingers 7.12502
rthumb 5.31977 -27.2613
lclavicle -3.97569e-016 -4.77083e-015
lhumerus -34.1786 24.9737 75.9893
lradius 28.5604
lwrist -7.67061
lhand -15.5319 25.3218
lfingers 7.12502
lthumb 10.6518 55.0318
rfemur -15.6447 2.42077 19.7976
rtibia 29.9079
rfoot -21.604 -3.77129
rtoes 16.0706
lfemur -22.598 -4.4553 -21.9807
ltibia 33.6956
lfoot -13.1136 -0.504492
ltoes -17.4163
1182
root 1.29257 17.8962 11.9332 -39.0045 -84.8459 -311.564
lowerback 2.01519 0.23909 -2.91508
upperback 0.956276 0.259395 2.14285
thorax -0.171316 0.111705 3.8354
lowerneck -10.6955 2.65954 -11.6955
upperneck 42.7277 3.63519 3.674
head 17.1192 -0.595781 4.17785
rclavicle -7.95139e-016 -7.95139e-015
rhumerus -27.3301 -7.39537 -76.0764
rradius 33.8959
rwrist 17.7205
rhand -21.1808 2.65158
rfingers 7.12502
rthumb 5.19974 -27.2646
lclavicle -7.95139e-016 -7.95139e-015
lhumerus -34.2086 25.2944 75.844
lradius 28.572
lwrist -7.82147
lhand -15.4451 25.3824
lfingers 7.12502
lthumb 10.7355 55.088
rfemur -15.5211 2.43367 19.9502
rtibia 29.9497
rfoot -21.708 -3.69718
rtoes 14.7994
lfemur -22.6131 -4.83161 -21.8961
ltibia 33.1819
lfoot -13.1439 -0.840494
ltoes -17.0975
1183
root 1.27043 17.8904 11.9362 -41.4338 -85.031 -309.083
lowerback 1.96158 0.219177 -2.98622
upperback 0.937174 0.23276 2.20224
thorax -0.158963 0.0980424 3.93792
lowerneck -10.8537 2.69767 -11.7639
upperneck 42.6159 3.82218 3.50961
head 17.0834 -0.542775 4.1429
rclavicle -6.75868e-015 3.18055e-015
rhumerus -27.2404 -6.91563 -76.3101
rradius 34.1762
rwrist 17.457
rhand -21.3093 2.5568
rfingers 7.12502
rthumb 5.07569 -27.3624
lclavicle -6.75868e-015 3.18055e-015
lhumerus -34.2092 25.5175 75.8698
lradius 28.5696
lwrist -7.80426
lhand -15.6321 25.5261
lfingers 7.12502
lthumb 10.5551 55.2411
rfemur -15.5183 2.56866 19.8917
rtibia 29.9232
rfoot -21.714 -3.42419
rtoes 14.9631
lfemur -22.7934 -5.01905 -22.0667
ltibia 32.6856
lfoot -13.2137 -0.820928
ltoes -19.104
1184
root 1.24893 17.8849 11.9402 -44.2074 -85.1924 -306.273
lowerback 2.0049 0.298106 -3.02507
upperback 0.868679 0.33731 2.16812
thorax -0.263052 0.153948 3.92199
lowerneck -10.9776 2.67383 -11.6837
upperneck 42.6255 3.801 3.48003
head 17.1262 -0.543988 4.11654
rclavicle -1.27222e-014 -4.77083e-015
rhumerus -27.2922 -6.84949 -76.4833
rradius 34.4196
rwrist 17.2912
rhand -21.3855 2.67457
rfingers 7.12502
rthumb 5.00211 -27.2464
lclavicle -1.27222e-014 -4.77083e-015
lhumerus -34.1592 25.0488 75.9994
lradius 28.5663
lwrist -7.73003
lhand -15.7896 25.5934
lfingers 7.12502
lthumb 10.4031 55.316
rfemur -15.5376 2.68842 19.8083
rtibia 29.9099
rfoot -21.6962 -3.10682
rtoes 15.6211
lfemur -22.9591 -5.23028 -22.2338
ltibia 32.1456
lfoot -13.3099 -0.776611
ltoes -20.0108
1185
root 1.22663 17.8863 11.9448 -46.3725 -85.4323 -304.148
lowerback 2.10807 0.446849 -2.87809
upperback 0.836875 0.536405 2.09333
thorax -0.369652 0.256719 3.75584
lowerneck -11.0118 2.59733 -11.5537
upperneck 42.564 3.62865 3.56287
head 17.1161 -0.575803 4.1049
rclavicle 1.03368e-014 1.03368e-014
rhumerus -27.3671 -7.16871 -76.6202
rradius 34.6332
rwrist 17.2734
rhand -21.4972 2.75508
rfingers 7.12502
rthumb 4.89428 -27.1684
lclavicle 1.03368e-014 1.03368e-014
lhumerus -34.0072 24.5585 76.0515
lradius 28.5034
lwrist -7.82325
lhand -15.899 25.5956
lfingers 7.12502
lthumb 10.2976 55.3235
rfemur -15.4182 2.70058 19.9142
rtibia 29.9056
rfoot -21.6608 -3.15484
rtoes 14.6908
lfemur -22.9983 -5.39244 -22.2432
ltibia 31.5377
lfoot -13.4233 -0.847265
ltoes -19.7247
1186
root 1.20287 17.8871 11.9515 -48.6744 -85.6744 -301.848
lowerback 2.1126 0.439288 -2.79051
upperback 0.829521 0.527547 2.13911
thorax -0.378669 0.25235 3.75385
lowerneck -11.0281 2.6788 -11.6635
upperneck 42.3915 3.78007 3.62015
head 16.9984 -0.507407 4.1667
rclavicle 5.1684e-015 2.70347e-014
rhumerus -27.246 -6.83033 -76.8269
rradius 34.8221
rwrist 17.2182
rhand -21.4769 2.70399
rfingers 7.12502
rthumb 4.91384 -27.219
lclavicle 5.1684e-015 2.70347e-014
lhumerus -34.0293 24.7458 75.9905
lradius 28.4912
lwrist -7.94063
lhand -15.982 25.6495
lfingers 7.12502
lthumb 10.2175 55.3814
rfemur -15.3479 2.57113 20.0092
rtibia 29.8918
rfoot -21.516 -3.08856
rtoes 13.4289
lfemur -23.0466 -5.58473 -22.2217
ltibia 30.874
lfoot -13.4794 -1.00729
ltoes -19.1775
1187
root 1.17952 17.8861 11.9612 -52.4832 -85.8077 -297.956
lowerback 2.03899 0.393756 -2.88697
upperback 0.807665 0.466705 2.19453
thorax -0.355771 0.221603 3.86774
lowerneck -11.124 2.7808 -11.7477
upperneck 42.281 4.02652 3.52231
head 16.9361 -0.423685 4.17189
rclavicle 2.78299e-015 1.43125e-014
rhumerus -27.1447 -6.19718 -77.0364
rradius 35.1091
rwrist 17.0499
rhand -21.3324 2.63651
rfingers 7.12502
rthumb 5.05343 -27.2832
lclavicle 2.78299e-015 1.43125e-014
lhumerus -34.0808 25.1 75.9281
lradius 28.5017
lwrist -8.03913
lhand -15.9115 25.6503
lfingers 7.12502
lthumb 10.2855 55.3788
rfemur -15.3868 2.52106 19.8898
rtibia 29.8558
rfoot -21.3905 -2.73939
rtoes 13.1969
lfemur -23.1923 -5.64665 -22.3916
ltibia 30.1749
lfoot -13.4673 -1.18742
ltoes -20.1984
1188
root 1.15636 17.8908 11.9717 -57.1357 -85.8971 -293.217
lowerback 1.97273 0.484583 -2.93997
upperback 0.801532 0.588956 2.12388
thorax -0.335546 0.282936 3.82197
lowerneck -11.3079 2.726 -11.6352
upperneck 42.3034 3.9649 3.47766
head 17.0079 -0.439476 4.12992
rclavicle -1.59028e-015 -2.94201e-014
rhumerus -27.1688 -6.15792 -77.2111
rradius 35.462
rwrist 17.0133
rhand -21.218 2.65222
rfingers 7.12502
rthumb 5.16382 -27.2649
lclavicle -1.59028e-015 -2.94201e-014
lhumerus -33.8929 25.0295 75.968
lradius 28.4507
lwrist -8.22256
lhand -15.8719 25.7297
lfingers 7.12502
lthumb 10.3237 55.4563
rfemur -15.3768 2.53164 19.7632
rtibia 29.7886
rfoot -21.2108 -2.73669
rtoes 12.0078
lfemur -23.3515 -5.61095 -22.6507
ltibia 29.4569
lfoot -13.3845 -1.31726
ltoes -21.3566
1189
root 1.13091 17.8958 11.9868 -60.929 -85.9466 -289.44
lowerback 2.01673 0.558019 -2.8797
upperback 0.795961 0.687325 2.03154
thorax -0.372833 0.333421 3.68946
lowerneck -11.3357 2.67486 -11.5545
upperneck 42.2192 3.86869 3.49354
head 16.9782 -0.456331 4.10618
rclavicle 7.35503e-015 2.62396e-014
rhumerus -27.0089 -6.24994 -77.4043
rradius 35.5202
rwrist 17.1045
rhand -21.2428 2.67554
rfingers 7.12502
rthumb 5.13994 -27.2421
lclavicle 7.35503e-015 2.62396e-014
lhumerus -33.7969 24.864 75.9756
lradius 28.4506
lwrist -8.40185
lhand -15.6859 25.6192
lfingers 7.12502
lthumb 10.5032 55.3368
rfemur -15.2052 2.64436 19.6449
rtibia 29.6854
rfoot -21.1907 -2.78318
rtoes 11.3052
lfemur -23.3628 -5.82788 -22.8216
ltibia 28.7355
lfoot -13.2466 -1.57092
ltoes -20.2298
